<?xml version="1.0" encoding="UTF-8" standalone="no"?>
<!-- Generator: Adobe Illustrator 16.0.4, SVG Export Plug-In . SVG Version: 6.00 Build 0)  -->

<svg
   xmlns:dc="http://purl.org/dc/elements/1.1/"
   xmlns:cc="http://creativecommons.org/ns#"
   xmlns:rdf="http://www.w3.org/1999/02/22-rdf-syntax-ns#"
   xmlns:svg="http://www.w3.org/2000/svg"
   xmlns="http://www.w3.org/2000/svg"
   xmlns:sodipodi="http://sodipodi.sourceforge.net/DTD/sodipodi-0.dtd"
   xmlns:inkscape="http://www.inkscape.org/namespaces/inkscape"
   version="1.1"
   id="Layer_1"
   x="0px"
   y="0px"
   width="162.52344"
   height="11.05"
   viewBox="0 0 162.52344 11.05"
   enable-background="new 0 0 270 10"
   xml:space="preserve"
   inkscape:version="0.92.3 (2405546, 2018-03-11)"
   sodipodi:docname="brand-var.svg"><metadata
     id="metadata75"><rdf:RDF><cc:Work
         rdf:about=""><dc:format>image/svg+xml</dc:format><dc:type
           rdf:resource="http://purl.org/dc/dcmitype/StillImage" /><dc:title></dc:title></cc:Work></rdf:RDF></metadata><defs
     id="defs73" /><sodipodi:namedview
     pagecolor="#9f3838"
     bordercolor="#666666"
     borderopacity="1"
     objecttolerance="10"
     gridtolerance="10"
     guidetolerance="10"
     inkscape:pageopacity="0"
     inkscape:pageshadow="2"
     inkscape:window-width="2556"
     inkscape:window-height="1392"
     id="namedview71"
     showgrid="false"
     inkscape:zoom="4.7768991"
     inkscape:cx="71.065689"
     inkscape:cy="-19.153893"
     inkscape:window-x="4"
     inkscape:window-y="9"
     inkscape:window-maximized="0"
     inkscape:current-layer="g3"
     showguides="true"
     inkscape:guide-bbox="true"
     fit-margin-top="1"
     fit-margin-left="1"
     fit-margin-right="2"
     fit-margin-bottom="1"><inkscape:grid
       type="xygrid"
       id="grid4203"
       originx="-1.3552633"
       originy="0.11212787" /></sodipodi:namedview><g
     id="g3"
     transform="translate(-0.17763162,0.49393597)"><text
   xml:space="preserve"
   style="font-style:normal;font-variant:normal;font-weight:normal;font-stretch:normal;line-height:0%;font-family:'Open Sans';-inkscape-font-specification:'Open Sans';letter-spacing:0px;word-spacing:0px;fill:#000000;fill-opacity:1;stroke:none;stroke-width:1px;stroke-linecap:butt;stroke-linejoin:miter;stroke-opacity:1"
   x="141.58717"
   y="-11.019737"
   id="text4254"><tspan
     sodipodi:role="line"
     id="tspan4256"
     x="141.58717"
     y="-11.019737"
     style="font-size:12.5px;line-height:1.25"> </tspan></text>

<text
   xml:space="preserve"
   style="font-style:normal;font-weight:normal;line-height:0%;font-family:sans-serif;letter-spacing:0px;word-spacing:0px;fill:#000000;fill-opacity:1;stroke:none;stroke-width:1px;stroke-linecap:butt;stroke-linejoin:miter;stroke-opacity:1"
   x="147.13815"
   y="-24.046053"
   id="text4258"><tspan
     sodipodi:role="line"
     id="tspan4260"
     x="147.13815"
     y="-24.046053"
     style="font-size:10px;line-height:1.25;font-family:sans-serif"> </tspan></text>

<text
   xml:space="preserve"
   style="font-style:normal;font-variant:normal;font-weight:bold;font-stretch:normal;line-height:0%;font-family:sans-serif;-inkscape-font-specification:'Sans Bold';letter-spacing:0px;word-spacing:0px;fill:#000000;fill-opacity:1;stroke:none;stroke-width:1px;stroke-linecap:butt;stroke-linejoin:miter;stroke-opacity:1"
   x="8.7335529"
   y="-26.266447"
   id="text4262"><tspan
     sodipodi:role="line"
     id="tspan4264"
     x="8.7335529"
     y="-26.266447"
     style="font-size:10px;line-height:1.25;font-family:sans-serif"> </tspan></text>

<g
   aria-label="VALUE AT RISK PREDICTOR"
   style="font-style:normal;font-variant:normal;font-weight:bold;font-stretch:normal;line-height:0%;font-family:Overpass;-inkscape-font-specification:'Overpass Bold';letter-spacing:0px;word-spacing:0px;fill:#ffffff;fill-opacity:1;stroke:none;stroke-width:1px;stroke-linecap:butt;stroke-linejoin:miter;stroke-opacity:1"
   id="text4270"><path
     d="m 4.2276316,9.406064 h 1.4625 l 3.0375,-8.74999997 h -1.5875 l -1.95,5.91249997 c -0.0625,0.2125 -0.15,0.5 -0.2125,0.8 -0.075,-0.3 -0.1625,-0.5875 -0.225,-0.8 l -1.9625,-5.91249997 h -1.6125 z"
     style="font-size:12.5px;line-height:1.25"
     id="path4524" /><path
     d="m 14.82978,9.406064 h 1.575 l -3.25,-8.74999997 h -1.4875 L 8.4047801,9.406064 h 1.5875 l 0.6874999,-1.9125 h 3.4625 z m -1.1625,-3.2625 h -2.5125 l 0.975,-2.625 c 0.0875,-0.25 0.2125,-0.625 0.2875,-0.8875 0.0625,0.2625 0.1875,0.6375 0.2875,0.8875 z"
     style="font-size:12.5px;line-height:1.25"
     id="path4526" /><path
     d="m 17.745014,9.406064 h 5.75 v -1.4375 h -4.25 V 0.65606403 h -1.5 z"
     style="font-size:12.5px;line-height:1.25"
     id="path4528" /><path
     d="m 28.150678,9.556064 c 1.85,0 3.4125,-0.9 3.4125,-3.4875 V 0.65606403 h -1.5 V 6.068564 c 0,1.6 -0.7875,2.05 -1.9125,2.05 -1.1375,0 -1.9125,-0.45 -1.9125,-2.05 V 0.65606403 h -1.5 V 6.068564 c 0,2.625 1.6125,3.4875 3.4125,3.4875 z"
     style="font-size:12.5px;line-height:1.25"
     id="path4530" /><path
     d="m 33.614155,9.406064 h 5.975 v -1.4125 h -4.475 v -2.4 h 2.5875 v -1.4125 h -2.5875 v -2.1125 h 4.2 V 0.65606403 h -5.7 z"
     style="font-size:12.5px;line-height:1.25"
     id="path4532" /><path
     d="m 49.668647,9.406064 h 1.575 l -3.25,-8.74999997 h -1.4875 l -3.2625,8.74999997 h 1.5875 l 0.6875,-1.9125 h 3.4625 z m -1.1625,-3.2625 h -2.5125 l 0.975,-2.625 c 0.0875,-0.25 0.2125,-0.625 0.2875,-0.8875 0.0625,0.2625 0.1875,0.6375 0.2875,0.8875 z"
     style="font-size:12.5px;line-height:1.25"
     id="path4534" /><path
     d="m 55.007905,2.093564 h 2.4875 V 0.65606403 h -6.475 V 2.093564 h 2.4875 v 7.3125 h 1.5 z"
     style="font-size:12.5px;line-height:1.25"
     id="path4536" /><path
     d="m 61.861225,9.406064 h 1.5 v -3.425 h 1.825 l 1.6875,3.425 h 1.6875 l -1.75,-3.5875 c 1.2375,-0.375 1.8,-1.5 1.8,-2.5 0,-1.375 -0.7,-2.66249997 -2.875,-2.66249997 h -3.875 z m 1.5,-4.85 v -2.475 h 2.4 c 1.025,0 1.3,0.65 1.3,1.2375 0,0.6375 -0.325,1.2375 -1.3,1.2375 z"
     style="font-size:12.5px;line-height:1.25"
     id="path4538" /><path
     d="m 70.493061,9.406064 h 1.5 V 0.65606403 h -1.5 z"
     style="font-size:12.5px;line-height:1.25"
     id="path4540" /><path
     d="m 76.990327,9.556064 c 1.725,0 3.075,-0.95 3.075,-2.6375 0,-1.85 -1.575,-2.4 -2.85,-2.85 -0.9125,-0.3 -1.675,-0.5625 -1.675,-1.2 0,-0.6 0.4625,-0.9375 1.25,-0.9375 0.825,0 1.325,0.3875 1.55,0.9 l 1.35,-0.45 c -0.3125,-1.075 -1.275,-1.87499997 -2.8,-1.87499997 -1.8375,0 -2.875,1.07499997 -2.875,2.34999997 0,1.6625 1.4,2.15 2.65,2.575 0.9875,0.3375 1.875,0.65 1.875,1.4875 0,0.8 -0.6,1.2125 -1.5,1.2125 -0.9,0 -1.6,-0.55 -1.9625,-1.35 l -1.3875,0.5125 c 0.475,1.3875 1.6875,2.2625 3.3,2.2625 z"
     style="font-size:12.5px;line-height:1.25"
     id="path4542" /><path
     d="m 87.245014,9.406064 h 1.75 l -3.1,-5.65 2.5,-3.09999997 h -1.75 L 83.307514,4.856064 V 0.65606403 h -1.5 V 9.406064 h 1.5 v -2.45 l 1.5875,-1.9375 z"
     style="font-size:12.5px;line-height:1.25"
     id="path4544" /><path
     d="m 93.550678,9.406064 h 1.5 v -3.3125 h 2.1375 c 2.1,0 2.937502,-1.475 2.937502,-2.725 0,-1.3375 -0.762502,-2.71249997 -2.937502,-2.71249997 h -3.6375 z m 3.7125,-4.7375 h -2.2125 v -2.5875 h 2.2125 c 1.025,0 1.3125,0.7375 1.3125,1.2875 0,0.6125 -0.35,1.3 -1.3125,1.3 z"
     style="font-size:12.5px;line-height:1.25"
     id="path4546" /><path
     d="m 101.50966,9.406064 h 1.5 v -3.425 h 1.825 l 1.6875,3.425 h 1.6875 l -1.75,-3.5875 c 1.2375,-0.375 1.8,-1.5 1.8,-2.5 0,-1.375 -0.7,-2.66249997 -2.875,-2.66249997 h -3.875 z m 1.5,-4.85 v -2.475 h 2.4 c 1.025,0 1.3,0.65 1.3,1.2375 0,0.6375 -0.325,1.2375 -1.3,1.2375 z"
     style="font-size:12.5px;line-height:1.25"
     id="path4548" /><path
     d="m 110.079,9.406064 h 5.975 v -1.4125 h -4.475 v -2.4 h 2.5875 v -1.4125 h -2.5875 v -2.1125 h 4.2 V 0.65606403 h -5.7 z"
     style="font-size:12.5px;line-height:1.25"
     id="path4550" /><path
     d="M 117.74501,0.65606403 V 9.406064 h 2.65 c 3.2125,0 4.2625,-2.375 4.2625,-4.375 0,-2.175 -1.15,-4.37499997 -4.2125,-4.37499997 z m 2.8625,7.33749997 h -1.3625 v -5.925 h 1.5 c 1.6625,0 2.3625,1.4875 2.3625,2.9625 0,1.375 -0.6375,2.9625 -2.5,2.9625 z"
     style="font-size:12.5px;line-height:1.25"
     id="path4552" /><path
     d="m 126.52333,9.406064 h 1.5 V 0.65606403 h -1.5 z"
     style="font-size:12.5px;line-height:1.25"
     id="path4554" /><path
     d="m 133.5706,9.556064 c 1.5625,0 2.525,-0.8375 3.0625,-2.05 l -1.3875,-0.525 c -0.4,0.6625 -0.8875,1.125 -1.675,1.125 -1.475,0 -2.1125,-1.625 -2.1125,-3.075 0,-1.375 0.5,-3.0875 2.1125,-3.0875 0.825,0 1.2625,0.375 1.7,1.0375 l 1.35,-0.6125 c -0.375,-0.925 -1.3875,-1.86249997 -3.05,-1.86249997 -2.7,0 -3.6625,2.51249997 -3.6625,4.52499997 0,2.1625 0.9375,4.525 3.6625,4.525 z"
     style="font-size:12.5px;line-height:1.25"
     id="path4556" /><path
     d="m 141.58017,2.093564 h 2.4875 V 0.65606403 h -6.475 V 2.093564 h 2.4875 v 7.3125 h 1.5 z"
     style="font-size:12.5px;line-height:1.25"
     id="path4558" /><path
     d="m 148.73583,9.556064 c 2.825,0 3.8375,-2.3625 3.8375,-4.525 0,-2.1625 -1.0125,-4.52499997 -3.8375,-4.52499997 -2.8125,0 -3.8375,2.36249997 -3.8375,4.52499997 0,2.1625 1.025,4.525 3.8375,4.525 z m 0,-1.4375 c -1.7,0 -2.2875,-1.6625 -2.2875,-3.0875 0,-1.35 0.5875,-3.0875 2.2875,-3.0875 1.7,0 2.2875,1.65 2.2875,3.0875 0,1.3375 -0.6,3.0875 -2.2875,3.0875 z"
     style="font-size:12.5px;line-height:1.25"
     id="path4560" /><path
     d="m 154.39052,9.406064 h 1.5 v -3.425 h 1.825 l 1.6875,3.425 h 1.6875 l -1.75,-3.5875 c 1.2375,-0.375 1.8,-1.5 1.8,-2.5 0,-1.375 -0.7,-2.66249997 -2.875,-2.66249997 h -3.875 z m 1.5,-4.85 v -2.475 h 2.4 c 1.025,0 1.3,0.65 1.3,1.2375 0,0.6375 -0.325,1.2375 -1.3,1.2375 z"
     style="font-size:12.5px;line-height:1.25"
     id="path4562" /></g>
</g></svg>